<mxfile host="app.diagrams.net" modified="2023-10-02T09:58:48.443Z" agent="Mozilla/5.0 (X11; Linux x86_64; rv:109.0) Gecko/20100101 Firefox/118.0" etag="Yk9SQYF1JvfA8WZr_qoj" version="22.0.0" type="device">
  <diagram name="Page-1" id="822b0af5-4adb-64df-f703-e8dfc1f81529">
    <mxGraphModel dx="2294" dy="2461" grid="1" gridSize="10" guides="1" tooltips="1" connect="1" arrows="1" fold="1" page="1" pageScale="1" pageWidth="1100" pageHeight="850" background="none" math="0" shadow="0">
      <root>
        <mxCell id="0" />
        <mxCell id="1" parent="0" />
        <mxCell id="7d933b09d9755ecc-5" value="Medcase&lt;br&gt;&lt;div&gt;API&lt;/div&gt;&lt;div&gt;&lt;br&gt;&lt;/div&gt;" style="verticalLabelPosition=bottom;aspect=fixed;html=1;verticalAlign=top;strokeColor=none;shape=mxgraph.citrix.file_server;rounded=0;shadow=0;comic=0;fontFamily=Verdana;" parent="1" vertex="1">
          <mxGeometry x="-990" y="-1039" width="71" height="97" as="geometry" />
        </mxCell>
        <mxCell id="BV0hq-VL02hFemEwukIW-1" value="&lt;div&gt;Renegade &lt;br&gt;API&lt;/div&gt;&lt;div&gt;&lt;br&gt;&lt;/div&gt;" style="verticalLabelPosition=bottom;aspect=fixed;html=1;verticalAlign=top;strokeColor=none;shape=mxgraph.citrix.file_server;rounded=0;shadow=0;comic=0;fontFamily=Verdana;" parent="1" vertex="1">
          <mxGeometry x="-85.5" y="-740" width="71" height="97" as="geometry" />
        </mxCell>
        <mxCell id="BV0hq-VL02hFemEwukIW-3" value="&lt;div&gt;Cancel&lt;/div&gt;Meeting&lt;br&gt;Request" style="rounded=0;whiteSpace=wrap;html=1;" parent="1" vertex="1">
          <mxGeometry x="-114.5" y="-470" width="120" height="60" as="geometry" />
        </mxCell>
        <mxCell id="BV0hq-VL02hFemEwukIW-5" value="&lt;div&gt;Cancel&lt;/div&gt;Meetings&lt;br&gt;Request" style="rounded=0;whiteSpace=wrap;html=1;" parent="1" vertex="1">
          <mxGeometry x="-470" y="-1027" width="120" height="60" as="geometry" />
        </mxCell>
        <mxCell id="BV0hq-VL02hFemEwukIW-6" value="" style="endArrow=classic;html=1;rounded=0;exitX=0.5;exitY=0;exitDx=0;exitDy=0;" parent="1" source="BV0hq-VL02hFemEwukIW-3" edge="1">
          <mxGeometry width="50" height="50" relative="1" as="geometry">
            <mxPoint x="-374.5" y="-540" as="sourcePoint" />
            <mxPoint x="-54.5" y="-590" as="targetPoint" />
          </mxGeometry>
        </mxCell>
        <mxCell id="BV0hq-VL02hFemEwukIW-11" value="YES" style="ellipse;whiteSpace=wrap;html=1;aspect=fixed;" parent="1" vertex="1">
          <mxGeometry x="-210" y="-1020.5" width="47" height="47" as="geometry" />
        </mxCell>
        <mxCell id="BV0hq-VL02hFemEwukIW-12" value="Abort" style="ellipse;whiteSpace=wrap;html=1;aspect=fixed;" parent="1" vertex="1">
          <mxGeometry x="-79.5" y="-1180" width="50" height="50" as="geometry" />
        </mxCell>
        <mxCell id="BV0hq-VL02hFemEwukIW-14" value="&lt;div&gt;Is&lt;br&gt;&lt;/div&gt;&lt;div&gt;existing&lt;/div&gt;&lt;div&gt;Meeting&lt;/div&gt;&lt;div&gt;?&lt;br&gt;&lt;/div&gt;" style="ellipse;whiteSpace=wrap;html=1;aspect=fixed;" parent="1" vertex="1">
          <mxGeometry x="-94.5" y="-967" width="80" height="80" as="geometry" />
        </mxCell>
        <mxCell id="BV0hq-VL02hFemEwukIW-18" value="" style="endArrow=none;dashed=1;html=1;dashPattern=1 3;strokeWidth=4;rounded=0;" parent="1" edge="1">
          <mxGeometry width="50" height="50" relative="1" as="geometry">
            <mxPoint x="-870" y="-580" as="sourcePoint" />
            <mxPoint x="-870" y="-1390" as="targetPoint" />
          </mxGeometry>
        </mxCell>
        <mxCell id="BV0hq-VL02hFemEwukIW-19" value="Orchard&lt;br&gt;&lt;div&gt;API&lt;/div&gt;&lt;div&gt;&lt;br&gt;&lt;/div&gt;" style="verticalLabelPosition=bottom;aspect=fixed;html=1;verticalAlign=top;strokeColor=none;shape=mxgraph.citrix.file_server;rounded=0;shadow=0;comic=0;fontFamily=Verdana;" parent="1" vertex="1">
          <mxGeometry x="-421" y="-1600" width="71" height="97" as="geometry" />
        </mxCell>
        <mxCell id="BV0hq-VL02hFemEwukIW-20" value="" style="endArrow=none;dashed=1;html=1;dashPattern=1 3;strokeWidth=4;strokeColor=default;rounded=0;" parent="1" edge="1">
          <mxGeometry width="50" height="50" relative="1" as="geometry">
            <mxPoint x="80" y="-1430" as="sourcePoint" />
            <mxPoint x="-840" y="-1430" as="targetPoint" />
          </mxGeometry>
        </mxCell>
        <mxCell id="BV0hq-VL02hFemEwukIW-21" value="" style="endArrow=classic;html=1;rounded=0;exitX=0;exitY=0;exitDx=0;exitDy=0;entryX=1;entryY=0.5;entryDx=0;entryDy=0;" parent="1" source="BV0hq-VL02hFemEwukIW-14" target="BV0hq-VL02hFemEwukIW-11" edge="1">
          <mxGeometry width="50" height="50" relative="1" as="geometry">
            <mxPoint x="140" y="-930" as="sourcePoint" />
            <mxPoint x="140" y="-1000" as="targetPoint" />
          </mxGeometry>
        </mxCell>
        <mxCell id="BV0hq-VL02hFemEwukIW-22" value="" style="endArrow=classic;html=1;rounded=0;exitX=0.5;exitY=0;exitDx=0;exitDy=0;entryX=0.5;entryY=1;entryDx=0;entryDy=0;" parent="1" source="BV0hq-VL02hFemEwukIW-14" target="DUSeEmhF9IcaIkfgfi0G-7" edge="1">
          <mxGeometry width="50" height="50" relative="1" as="geometry">
            <mxPoint x="150" y="-920" as="sourcePoint" />
            <mxPoint x="-50" y="-1030" as="targetPoint" />
          </mxGeometry>
        </mxCell>
        <mxCell id="BV0hq-VL02hFemEwukIW-40" value="" style="endArrow=classic;html=1;rounded=0;exitX=0;exitY=0.75;exitDx=0;exitDy=0;strokeWidth=3;fillColor=#dae8fc;strokeColor=#6c8ebf;" parent="1" source="BV0hq-VL02hFemEwukIW-5" edge="1">
          <mxGeometry width="50" height="50" relative="1" as="geometry">
            <mxPoint x="-350" y="-980" as="sourcePoint" />
            <mxPoint x="-870" y="-980" as="targetPoint" />
          </mxGeometry>
        </mxCell>
        <mxCell id="BV0hq-VL02hFemEwukIW-41" value="" style="endArrow=classic;html=1;rounded=0;entryX=0;entryY=0.25;entryDx=0;entryDy=0;" parent="1" target="BV0hq-VL02hFemEwukIW-5" edge="1">
          <mxGeometry width="50" height="50" relative="1" as="geometry">
            <mxPoint x="-870" y="-1012" as="sourcePoint" />
            <mxPoint x="-750" y="-890" as="targetPoint" />
          </mxGeometry>
        </mxCell>
        <mxCell id="BV0hq-VL02hFemEwukIW-42" value="" style="endArrow=classic;html=1;rounded=0;exitX=0;exitY=0.5;exitDx=0;exitDy=0;entryX=1;entryY=0.5;entryDx=0;entryDy=0;" parent="1" source="BV0hq-VL02hFemEwukIW-11" target="BV0hq-VL02hFemEwukIW-5" edge="1">
          <mxGeometry width="50" height="50" relative="1" as="geometry">
            <mxPoint x="-390" y="-880" as="sourcePoint" />
            <mxPoint x="-820" y="-880" as="targetPoint" />
          </mxGeometry>
        </mxCell>
        <mxCell id="BV0hq-VL02hFemEwukIW-50" value="" style="endArrow=classic;html=1;rounded=0;strokeWidth=3;fillColor=#f8cecc;strokeColor=#FF3333;" parent="1" edge="1">
          <mxGeometry width="50" height="50" relative="1" as="geometry">
            <mxPoint x="-850" y="-690" as="sourcePoint" />
            <mxPoint x="-250" y="-690" as="targetPoint" />
          </mxGeometry>
        </mxCell>
        <mxCell id="BV0hq-VL02hFemEwukIW-52" value="" style="endArrow=classic;html=1;rounded=0;" parent="1" edge="1">
          <mxGeometry width="50" height="50" relative="1" as="geometry">
            <mxPoint x="-163" y="-692" as="sourcePoint" />
            <mxPoint x="-103" y="-692" as="targetPoint" />
          </mxGeometry>
        </mxCell>
        <mxCell id="BV0hq-VL02hFemEwukIW-75" value="" style="endArrow=none;dashed=1;html=1;dashPattern=1 3;strokeWidth=4;rounded=0;" parent="1" edge="1">
          <mxGeometry width="50" height="50" relative="1" as="geometry">
            <mxPoint x="-830" y="-520" as="sourcePoint" />
            <mxPoint x="80" y="-520" as="targetPoint" />
          </mxGeometry>
        </mxCell>
        <mxCell id="BV0hq-VL02hFemEwukIW-76" value="" style="endArrow=classic;html=1;rounded=0;exitX=0.5;exitY=0;exitDx=0;exitDy=0;" parent="1" edge="1">
          <mxGeometry width="50" height="50" relative="1" as="geometry">
            <mxPoint x="-55" y="-750" as="sourcePoint" />
            <mxPoint x="-55" y="-870" as="targetPoint" />
          </mxGeometry>
        </mxCell>
        <mxCell id="BV0hq-VL02hFemEwukIW-77" value="MC&lt;br&gt;WebHooks" style="rounded=0;whiteSpace=wrap;html=1;" parent="1" vertex="1">
          <mxGeometry x="-240" y="-786.5" width="70" height="190" as="geometry" />
        </mxCell>
        <mxCell id="BV0hq-VL02hFemEwukIW-78" value="Cancel Medcase Meeting Webhook" style="text;html=1;strokeColor=none;fillColor=none;align=center;verticalAlign=middle;whiteSpace=wrap;rounded=0;" parent="1" vertex="1">
          <mxGeometry x="-710" y="-720" width="340" height="30" as="geometry" />
        </mxCell>
        <mxCell id="BV0hq-VL02hFemEwukIW-81" value="" style="endArrow=none;html=1;rounded=0;" parent="1" edge="1">
          <mxGeometry width="50" height="50" relative="1" as="geometry">
            <mxPoint x="-1080" y="-250" as="sourcePoint" />
            <mxPoint x="-1080" y="-1680" as="targetPoint" />
          </mxGeometry>
        </mxCell>
        <mxCell id="BV0hq-VL02hFemEwukIW-82" value="" style="endArrow=none;html=1;rounded=0;" parent="1" edge="1">
          <mxGeometry width="50" height="50" relative="1" as="geometry">
            <mxPoint x="340" y="-250" as="sourcePoint" />
            <mxPoint x="340" y="-1680" as="targetPoint" />
          </mxGeometry>
        </mxCell>
        <mxCell id="DUSeEmhF9IcaIkfgfi0G-1" value="&lt;div&gt;&lt;font style=&quot;font-size: 26px;&quot;&gt;Flow:&amp;nbsp;&lt;/font&gt;&lt;/div&gt;&lt;div&gt;&lt;font style=&quot;font-size: 26px;&quot;&gt;Patient/Provider&lt;/font&gt;&lt;/div&gt;&lt;font style=&quot;font-size: 26px;&quot;&gt;Cancel Medcase Meeting&lt;br&gt;&lt;/font&gt;" style="text;html=1;strokeColor=none;fillColor=none;align=center;verticalAlign=middle;whiteSpace=wrap;rounded=0;" vertex="1" parent="1">
          <mxGeometry x="-1060" y="-1670" width="510" height="100" as="geometry" />
        </mxCell>
        <mxCell id="DUSeEmhF9IcaIkfgfi0G-2" value="&lt;b&gt;DB&lt;/b&gt;" style="shape=datastore;whiteSpace=wrap;html=1;" vertex="1" parent="1">
          <mxGeometry x="180" y="-810" width="60" height="60" as="geometry" />
        </mxCell>
        <mxCell id="DUSeEmhF9IcaIkfgfi0G-3" value="Update Meeting Status&lt;br&gt;&lt;b&gt;&lt;font color=&quot;#ff3c00&quot;&gt;CANCELLED&lt;/font&gt;&lt;/b&gt;" style="rounded=0;whiteSpace=wrap;html=1;" vertex="1" parent="1">
          <mxGeometry x="130" y="-720" width="160" height="60" as="geometry" />
        </mxCell>
        <mxCell id="DUSeEmhF9IcaIkfgfi0G-4" value="" style="endArrow=classic;html=1;rounded=0;exitX=0.15;exitY=0.95;exitDx=0;exitDy=0;exitPerimeter=0;entryX=0.25;entryY=0;entryDx=0;entryDy=0;" edge="1" parent="1" source="DUSeEmhF9IcaIkfgfi0G-2" target="DUSeEmhF9IcaIkfgfi0G-3">
          <mxGeometry width="50" height="50" relative="1" as="geometry">
            <mxPoint x="270" y="-790" as="sourcePoint" />
            <mxPoint x="270" y="-870" as="targetPoint" />
          </mxGeometry>
        </mxCell>
        <mxCell id="DUSeEmhF9IcaIkfgfi0G-5" value="" style="endArrow=classic;html=1;rounded=0;entryX=0.85;entryY=0.95;entryDx=0;entryDy=0;entryPerimeter=0;exitX=0.75;exitY=0;exitDx=0;exitDy=0;" edge="1" parent="1" source="DUSeEmhF9IcaIkfgfi0G-3" target="DUSeEmhF9IcaIkfgfi0G-2">
          <mxGeometry width="50" height="50" relative="1" as="geometry">
            <mxPoint x="280" y="-780" as="sourcePoint" />
            <mxPoint x="280" y="-860" as="targetPoint" />
          </mxGeometry>
        </mxCell>
        <mxCell id="DUSeEmhF9IcaIkfgfi0G-6" value="" style="endArrow=classic;html=1;rounded=0;" edge="1" parent="1">
          <mxGeometry width="50" height="50" relative="1" as="geometry">
            <mxPoint y="-690.5" as="sourcePoint" />
            <mxPoint x="110" y="-690" as="targetPoint" />
          </mxGeometry>
        </mxCell>
        <mxCell id="DUSeEmhF9IcaIkfgfi0G-8" style="edgeStyle=orthogonalEdgeStyle;rounded=0;orthogonalLoop=1;jettySize=auto;html=1;exitX=0.5;exitY=0;exitDx=0;exitDy=0;entryX=0.5;entryY=1;entryDx=0;entryDy=0;" edge="1" parent="1" source="DUSeEmhF9IcaIkfgfi0G-7" target="BV0hq-VL02hFemEwukIW-12">
          <mxGeometry relative="1" as="geometry" />
        </mxCell>
        <mxCell id="DUSeEmhF9IcaIkfgfi0G-7" value="NO" style="ellipse;whiteSpace=wrap;html=1;aspect=fixed;" vertex="1" parent="1">
          <mxGeometry x="-78" y="-1074" width="47" height="47" as="geometry" />
        </mxCell>
        <mxCell id="DUSeEmhF9IcaIkfgfi0G-9" value="&lt;font style=&quot;font-size: 26px;&quot;&gt;&lt;b&gt;5&lt;/b&gt;&lt;/font&gt;" style="ellipse;whiteSpace=wrap;html=1;aspect=fixed;" vertex="1" parent="1">
          <mxGeometry x="-615" y="-1325" width="50" height="50" as="geometry" />
        </mxCell>
        <mxCell id="DUSeEmhF9IcaIkfgfi0G-10" value="Sync-Service" style="verticalLabelPosition=bottom;aspect=fixed;html=1;verticalAlign=top;strokeColor=none;shape=mxgraph.citrix.file_server;rounded=0;shadow=0;comic=0;fontFamily=Verdana;" vertex="1" parent="1">
          <mxGeometry x="-537" y="-1292" width="71" height="97" as="geometry" />
        </mxCell>
        <mxCell id="DUSeEmhF9IcaIkfgfi0G-11" value="&lt;div&gt;Find&amp;nbsp;&lt;/div&gt;&lt;div&gt;&lt;b&gt;&lt;font color=&quot;#ff1100&quot;&gt;CANCELLED&lt;/font&gt;&lt;/b&gt;&lt;/div&gt;&lt;div&gt;Meetings&lt;br&gt;&lt;/div&gt;" style="ellipse;whiteSpace=wrap;html=1;aspect=fixed;" vertex="1" parent="1">
          <mxGeometry x="-740" y="-1300" width="120" height="120" as="geometry" />
        </mxCell>
        <mxCell id="DUSeEmhF9IcaIkfgfi0G-12" value="" style="endArrow=classic;html=1;rounded=0;" edge="1" parent="1" source="DUSeEmhF9IcaIkfgfi0G-11">
          <mxGeometry width="50" height="50" relative="1" as="geometry">
            <mxPoint x="-667" y="-1250" as="sourcePoint" />
            <mxPoint x="-637" y="-1280" as="targetPoint" />
          </mxGeometry>
        </mxCell>
        <mxCell id="DUSeEmhF9IcaIkfgfi0G-13" value="" style="endArrow=classic;html=1;rounded=0;" edge="1" parent="1">
          <mxGeometry width="50" height="50" relative="1" as="geometry">
            <mxPoint x="-728.5" y="-1240" as="sourcePoint" />
            <mxPoint x="-678.5" y="-1190" as="targetPoint" />
          </mxGeometry>
        </mxCell>
        <mxCell id="DUSeEmhF9IcaIkfgfi0G-14" value="" style="endArrow=classic;html=1;rounded=0;" edge="1" parent="1">
          <mxGeometry width="50" height="50" relative="1" as="geometry">
            <mxPoint x="-628.5" y="-1240" as="sourcePoint" />
            <mxPoint x="-678.5" y="-1290" as="targetPoint" />
          </mxGeometry>
        </mxCell>
        <mxCell id="DUSeEmhF9IcaIkfgfi0G-15" value="" style="endArrow=classic;html=1;rounded=0;exitX=0.5;exitY=1;exitDx=0;exitDy=0;entryX=0.5;entryY=1;entryDx=0;entryDy=0;" edge="1" parent="1" source="DUSeEmhF9IcaIkfgfi0G-11" target="DUSeEmhF9IcaIkfgfi0G-16">
          <mxGeometry width="50" height="50" relative="1" as="geometry">
            <mxPoint x="-407" y="-1120" as="sourcePoint" />
            <mxPoint x="-247" y="-1130" as="targetPoint" />
            <Array as="points">
              <mxPoint x="-680" y="-1130" />
              <mxPoint x="-317" y="-1130" />
            </Array>
          </mxGeometry>
        </mxCell>
        <mxCell id="DUSeEmhF9IcaIkfgfi0G-16" value="&lt;div&gt;Send &lt;br&gt;Email&lt;br&gt;&lt;/div&gt;&lt;div&gt;Notifications&lt;/div&gt;" style="ellipse;whiteSpace=wrap;html=1;aspect=fixed;" vertex="1" parent="1">
          <mxGeometry x="-377" y="-1300" width="120" height="120" as="geometry" />
        </mxCell>
        <mxCell id="DUSeEmhF9IcaIkfgfi0G-17" value="" style="endArrow=classic;html=1;rounded=0;entryX=0.5;entryY=0;entryDx=0;entryDy=0;exitX=0.5;exitY=0;exitDx=0;exitDy=0;" edge="1" parent="1" source="DUSeEmhF9IcaIkfgfi0G-16" target="DUSeEmhF9IcaIkfgfi0G-11">
          <mxGeometry width="50" height="50" relative="1" as="geometry">
            <mxPoint x="-402" y="-1441" as="sourcePoint" />
            <mxPoint x="-320" y="-1401" as="targetPoint" />
            <Array as="points">
              <mxPoint x="-317" y="-1351" />
              <mxPoint x="-682" y="-1351" />
            </Array>
          </mxGeometry>
        </mxCell>
        <mxCell id="DUSeEmhF9IcaIkfgfi0G-18" value="" style="endArrow=classic;html=1;rounded=0;" edge="1" parent="1">
          <mxGeometry width="50" height="50" relative="1" as="geometry">
            <mxPoint x="-256" y="-1241" as="sourcePoint" />
            <mxPoint x="-216" y="-1241" as="targetPoint" />
          </mxGeometry>
        </mxCell>
        <mxCell id="DUSeEmhF9IcaIkfgfi0G-19" value="" style="shape=image;verticalLabelPosition=bottom;verticalAlign=top;aspect=fixed;image=data:image/svg+xml,PHN2ZyB4bWxucz0iaHR0cDovL3d3dy53My5vcmcvMjAwMC9zdmciIHhtbG5zOnhsaW5rPSJodHRwOi8vd3d3LnczLm9yZy8xOTk5L3hsaW5rIiB2ZXJzaW9uPSIxLjEiIGlkPSJMYXllcl8xIiB4PSIwcHgiIHk9IjBweCIgd2lkdGg9IjQ4cHgiIGhlaWdodD0iNDhweCIgdmlld0JveD0iMCAwIDQ4IDQ4IiBlbmFibGUtYmFja2dyb3VuZD0ibmV3IDAgMCA0OCA0OCIgeG1sOnNwYWNlPSJwcmVzZXJ2ZSI+JiN4YTs8ZyBpZD0iY29sb3JfMjhfIj4mI3hhOwk8Zz4mI3hhOwkJPHBhdGggZmlsbC1ydWxlPSJldmVub2RkIiBjbGlwLXJ1bGU9ImV2ZW5vZGQiIGZpbGw9IiNGMTYzNjIiIGQ9Ik00NCwzOEgzM1Y3YzAtMC41NTMtMC40NDctMS0xLTFIN0M2LjQ0Nyw2LDYsNi40NDcsNiw3djMyICAgIGMwLDMuNjY3LDEuOTM4LDUuNzUxLDUuNDM1LDUuOTU5QzEzLjk5Miw0NC41NDgsMTYsNDAuNjE1LDE2LDM4aDJjMCwzLjY2Ny0yLjgyLDYuNjctNi40MSw2Ljk3QzExLjcyOSw0NC45NzYsMTEuODU1LDQ1LDEyLDQ1aDI3ICAgIGMyLjg2NiwwLDYtMi4xMzQsNi01di0xQzQ1LDM4LjQ0Nyw0NC41NTMsMzgsNDQsMzh6Ii8+JiN4YTsJPC9nPiYjeGE7PC9nPiYjeGE7PGcgaWQ9Im91dGxpbmVfMjdfIj4mI3hhOwk8Zz4mI3hhOwkJPHBhdGggZmlsbD0iIzM4NEQ2OCIgZD0iTTIwLDE4SDljLTAuNTUzLDAtMSwwLjQ0Ny0xLDFzMC40NDcsMSwxLDFoMTFjMC41NTMsMCwxLTAuNDQ3LDEtMVMyMC41NTMsMTgsMjAsMTh6IE0yMCwyMkg5ICAgIGMtMC41NTMsMC0xLDAuNDQ3LTEsMXMwLjQ0NywxLDEsMWgxMWMwLjU1MywwLDEtMC40NDcsMS0xUzIwLjU1MywyMiwyMCwyMnogTTQ1LDM3SDM0VjNjMC0wLjU1My0wLjQ0Ny0xLTEtMUgzICAgIEMyLjQ0NywyLDIsMi40NDcsMiwzdjM2YzAsMy44NjYsMy4xMzQsNyw3LDdoMzBjMy44NjYsMCw3LTMuMTM0LDctN3YtMUM0NiwzNy40NDcsNDUuNTUzLDM3LDQ1LDM3eiBNOSw0NGMtMi43NjIsMC01LTIuMjM4LTUtNVY0ICAgIGgyOHYzM0gxNWMtMC41NTMsMC0xLDAuNDQ3LTEsMXYxQzE0LDQxLjc2MiwxMS43NjIsNDQsOSw0NHogTTM5LDQ0SDEzLjg5NUMxNS4xOTIsNDIuNzI5LDE2LDQwLjk2LDE2LDM5aDI4ICAgIEM0NCw0MS43NjIsNDEuNzYyLDQ0LDM5LDQ0eiBNMzAsMTNWN2MwLTAuNTUzLTAuNDQ3LTEtMS0xSDdDNi40NDcsNiw2LDYuNDQ3LDYsN3Y2YzAsMC41NTMsMC40NDcsMSwxLDFoMjIgICAgQzI5LjU1MywxNCwzMCwxMy41NTMsMzAsMTN6IE0xNywxMWMwLDAuNTUzLTAuNDQ3LDEtMSwxSDhWOGg4YzAuNTUzLDAsMSwwLjQ0NywxLDFWMTF6IE0yOCwxMmgtOGMtMC41NTMsMC0xLTAuNDQ3LTEtMVY5ICAgIGMwLTAuNTUzLDAuNDQ3LTEsMS0xaDhWMTJ6IE0xNiwyN2MwLTAuNTUzLTAuNDQ3LTEtMS0xSDljLTAuNTUzLDAtMSwwLjQ0Ny0xLDFzMC40NDcsMSwxLDFoNkMxNS41NTMsMjgsMTYsMjcuNTUzLDE2LDI3eiIvPiYjeGE7CTwvZz4mI3hhOzwvZz4mI3hhOzwvc3ZnPg==" vertex="1" parent="1">
          <mxGeometry x="-201" y="-1264" width="48" height="48" as="geometry" />
        </mxCell>
        <mxCell id="DUSeEmhF9IcaIkfgfi0G-21" value="&lt;font style=&quot;font-size: 26px;&quot;&gt;&lt;b&gt;1&lt;/b&gt;&lt;/font&gt;" style="ellipse;whiteSpace=wrap;html=1;aspect=fixed;" vertex="1" parent="1">
          <mxGeometry x="-180" y="-470" width="50" height="50" as="geometry" />
        </mxCell>
        <mxCell id="DUSeEmhF9IcaIkfgfi0G-22" value="&lt;font style=&quot;font-size: 26px;&quot;&gt;&lt;b&gt;3&lt;/b&gt;&lt;/font&gt;" style="ellipse;whiteSpace=wrap;html=1;aspect=fixed;" vertex="1" parent="1">
          <mxGeometry x="-565" y="-790" width="50" height="50" as="geometry" />
        </mxCell>
        <mxCell id="DUSeEmhF9IcaIkfgfi0G-23" value="&lt;font style=&quot;font-size: 26px;&quot;&gt;&lt;b&gt;2&lt;/b&gt;&lt;/font&gt;" style="ellipse;whiteSpace=wrap;html=1;aspect=fixed;" vertex="1" parent="1">
          <mxGeometry x="-435" y="-952" width="50" height="50" as="geometry" />
        </mxCell>
        <mxCell id="DUSeEmhF9IcaIkfgfi0G-24" value="&lt;font style=&quot;font-size: 26px;&quot;&gt;&lt;b&gt;4&lt;/b&gt;&lt;/font&gt;" style="ellipse;whiteSpace=wrap;html=1;aspect=fixed;" vertex="1" parent="1">
          <mxGeometry x="80" y="-800" width="50" height="50" as="geometry" />
        </mxCell>
      </root>
    </mxGraphModel>
  </diagram>
</mxfile>
